<?xml version="1.0" standalone="no"?>
<!DOCTYPE svg PUBLIC "-//W3C//DTD SVG 20010904//EN"
 "http://www.w3.org/TR/2001/REC-SVG-20010904/DTD/svg10.dtd">
<svg version="1.0" xmlns="http://www.w3.org/2000/svg"
 width="180.000000pt" height="180.000000pt" viewBox="0 0 180.000000 180.000000"
 preserveAspectRatio="xMidYMid meet">
<metadata>
Created by potrace 1.14, written by Peter Selinger 2001-2017
</metadata>
<g transform="translate(0.000000,180.000000) scale(0.100000,-0.100000)"
fill="#000000" stroke="none">
<path d="M208 1784 c-90 -32 -157 -99 -189 -187 -17 -49 -18 -89 -16 -712 l2
-660 24 -49 c31 -63 83 -115 146 -146 l50 -25 675 0 675 0 47 23 c62 31 124
92 151 150 22 47 22 48 22 722 0 670 0 675 -21 721 -28 60 -86 118 -149 149
l-50 25 -665 1 c-536 1 -672 -1 -702 -12z"/>
</g>
</svg>
